<mxfile host="app.diagrams.net" modified="2023-11-04T14:01:49.781Z" agent="Mozilla/5.0 (Macintosh; Intel Mac OS X 10_15_7) AppleWebKit/537.36 (KHTML, like Gecko) Chrome/119.0.0.0 Safari/537.36" etag="c1RN4GL5UCj79Xj92wxh" version="22.0.8" type="device">
  <diagram name="Page-1" id="mHryi9FxQg6rtNW1_ikM">
    <mxGraphModel dx="-27" dy="456" grid="1" gridSize="10" guides="1" tooltips="1" connect="1" arrows="1" fold="1" page="0" pageScale="1" pageWidth="850" pageHeight="1100" math="0" shadow="0">
      <root>
        <mxCell id="0" />
        <mxCell id="1" parent="0" />
        <mxCell id="8W7GUWQGtb0MU_4nZzis-2" value="" style="rounded=0;whiteSpace=wrap;html=1;strokeColor=#3399FF;fillColor=none;" vertex="1" parent="1">
          <mxGeometry x="890" y="230" width="290" height="140" as="geometry" />
        </mxCell>
        <mxCell id="GL-utDqGiQ9SbgEWFXb8-1" style="edgeStyle=orthogonalEdgeStyle;rounded=0;orthogonalLoop=1;jettySize=auto;html=1;endArrow=block;endFill=0;fillColor=#f5f5f5;strokeColor=#A8A8A8;fillOpacity=0;fontColor=#A8A8A8;" parent="1" source="GL-utDqGiQ9SbgEWFXb8-3" target="GL-utDqGiQ9SbgEWFXb8-4" edge="1">
          <mxGeometry relative="1" as="geometry" />
        </mxCell>
        <mxCell id="GL-utDqGiQ9SbgEWFXb8-2" style="edgeStyle=orthogonalEdgeStyle;rounded=0;orthogonalLoop=1;jettySize=auto;html=1;exitX=0.5;exitY=0;exitDx=0;exitDy=0;entryX=0.5;entryY=1;entryDx=0;entryDy=0;endArrow=classic;endFill=1;fillColor=#f5f5f5;strokeColor=#A8A8A8;fillOpacity=100;fontColor=#A8A8A8;endSize=4;" parent="1" source="GL-utDqGiQ9SbgEWFXb8-3" target="GL-utDqGiQ9SbgEWFXb8-5" edge="1">
          <mxGeometry relative="1" as="geometry" />
        </mxCell>
        <mxCell id="GL-utDqGiQ9SbgEWFXb8-3" value="FeedViewController" style="rounded=0;whiteSpace=wrap;html=1;fillColor=#f5f5f5;strokeColor=#A8A8A8;fontColor=#A8A8A8;fillOpacity=0;" parent="1" vertex="1">
          <mxGeometry x="1193" y="373" width="110" height="30" as="geometry" />
        </mxCell>
        <mxCell id="GL-utDqGiQ9SbgEWFXb8-4" value="UIViewController" style="rounded=0;whiteSpace=wrap;html=1;fillColor=#f5f5f5;strokeColor=#A8A8A8;fontColor=#A8A8A8;fillOpacity=0;" parent="1" vertex="1">
          <mxGeometry x="1193" y="433" width="110" height="30" as="geometry" />
        </mxCell>
        <mxCell id="GL-utDqGiQ9SbgEWFXb8-5" value="&amp;lt;Feed Feature&amp;gt;" style="rounded=0;whiteSpace=wrap;html=1;fillColor=#f5f5f5;strokeColor=#FF3333;fontColor=#FF3333;fillOpacity=0;" parent="1" vertex="1">
          <mxGeometry x="1201" y="312" width="94" height="30" as="geometry" />
        </mxCell>
        <mxCell id="GL-utDqGiQ9SbgEWFXb8-6" style="edgeStyle=orthogonalEdgeStyle;shape=connector;rounded=0;orthogonalLoop=1;jettySize=auto;html=1;entryX=0;entryY=0.5;entryDx=0;entryDy=0;dashed=1;labelBackgroundColor=default;fontFamily=Helvetica;fontSize=12;fontColor=#3399FF;endArrow=block;endFill=0;exitX=0.5;exitY=1;exitDx=0;exitDy=0;fillColor=#f5f5f5;strokeColor=#3399FF;fillOpacity=0;" parent="1" source="GL-utDqGiQ9SbgEWFXb8-7" target="GL-utDqGiQ9SbgEWFXb8-5" edge="1">
          <mxGeometry relative="1" as="geometry" />
        </mxCell>
        <mxCell id="8W7GUWQGtb0MU_4nZzis-6" style="edgeStyle=orthogonalEdgeStyle;rounded=0;orthogonalLoop=1;jettySize=auto;html=1;entryX=1;entryY=0.5;entryDx=0;entryDy=0;strokeColor=#3399FF;endSize=4;" edge="1" parent="1" source="GL-utDqGiQ9SbgEWFXb8-7" target="8W7GUWQGtb0MU_4nZzis-3">
          <mxGeometry relative="1" as="geometry" />
        </mxCell>
        <mxCell id="8W7GUWQGtb0MU_4nZzis-7" style="edgeStyle=orthogonalEdgeStyle;rounded=0;orthogonalLoop=1;jettySize=auto;html=1;exitX=0.25;exitY=1;exitDx=0;exitDy=0;entryX=1;entryY=0.5;entryDx=0;entryDy=0;strokeColor=#3399FF;endSize=4;" edge="1" parent="1" source="GL-utDqGiQ9SbgEWFXb8-7" target="8W7GUWQGtb0MU_4nZzis-4">
          <mxGeometry relative="1" as="geometry" />
        </mxCell>
        <mxCell id="GL-utDqGiQ9SbgEWFXb8-7" value="RemoteFeedLoader" style="rounded=0;whiteSpace=wrap;html=1;fillColor=#f5f5f5;strokeColor=#3399FF;fontColor=#3399FF;fillOpacity=0;" parent="1" vertex="1">
          <mxGeometry x="1050" y="240" width="115" height="30" as="geometry" />
        </mxCell>
        <mxCell id="GL-utDqGiQ9SbgEWFXb8-8" style="edgeStyle=orthogonalEdgeStyle;shape=connector;rounded=0;orthogonalLoop=1;jettySize=auto;html=1;entryX=1;entryY=0.5;entryDx=0;entryDy=0;dashed=1;labelBackgroundColor=default;fontFamily=Helvetica;fontSize=11;fontColor=#A8A8A8;endArrow=block;endFill=0;fillColor=#f5f5f5;strokeColor=#A8A8A8;fillOpacity=0;" parent="1" source="GL-utDqGiQ9SbgEWFXb8-9" target="GL-utDqGiQ9SbgEWFXb8-5" edge="1">
          <mxGeometry relative="1" as="geometry" />
        </mxCell>
        <mxCell id="GL-utDqGiQ9SbgEWFXb8-9" value="LocalFeedLoader" style="rounded=0;whiteSpace=wrap;html=1;fillColor=#f5f5f5;strokeColor=#A8A8A8;fontColor=#A8A8A8;fillOpacity=0;" parent="1" vertex="1">
          <mxGeometry x="1265" y="240" width="105" height="30" as="geometry" />
        </mxCell>
        <mxCell id="GL-utDqGiQ9SbgEWFXb8-10" style="edgeStyle=orthogonalEdgeStyle;shape=connector;rounded=0;orthogonalLoop=1;jettySize=auto;html=1;entryX=0.75;entryY=0;entryDx=0;entryDy=0;labelBackgroundColor=default;fontFamily=Helvetica;fontSize=11;fontColor=#A8A8A8;endArrow=classic;endFill=1;exitX=0.25;exitY=1;exitDx=0;exitDy=0;fillColor=#f5f5f5;strokeColor=#A8A8A8;fillOpacity=100;endSize=4;" parent="1" source="GL-utDqGiQ9SbgEWFXb8-13" target="GL-utDqGiQ9SbgEWFXb8-7" edge="1">
          <mxGeometry relative="1" as="geometry" />
        </mxCell>
        <mxCell id="GL-utDqGiQ9SbgEWFXb8-11" style="edgeStyle=orthogonalEdgeStyle;shape=connector;rounded=0;orthogonalLoop=1;jettySize=auto;html=1;exitX=0.75;exitY=1;exitDx=0;exitDy=0;entryX=0.5;entryY=0;entryDx=0;entryDy=0;labelBackgroundColor=default;fontFamily=Helvetica;fontSize=11;fontColor=#A8A8A8;endArrow=classic;endFill=1;fillColor=#f5f5f5;strokeColor=#A8A8A8;fillOpacity=100;endSize=4;" parent="1" source="GL-utDqGiQ9SbgEWFXb8-13" target="GL-utDqGiQ9SbgEWFXb8-9" edge="1">
          <mxGeometry relative="1" as="geometry" />
        </mxCell>
        <mxCell id="GL-utDqGiQ9SbgEWFXb8-12" style="edgeStyle=orthogonalEdgeStyle;shape=connector;rounded=0;orthogonalLoop=1;jettySize=auto;html=1;entryX=0.5;entryY=0;entryDx=0;entryDy=0;dashed=1;labelBackgroundColor=default;fontFamily=Helvetica;fontSize=11;fontColor=#A8A8A8;endArrow=block;endFill=0;fillColor=#f5f5f5;strokeColor=#A8A8A8;fillOpacity=0;" parent="1" source="GL-utDqGiQ9SbgEWFXb8-13" target="GL-utDqGiQ9SbgEWFXb8-5" edge="1">
          <mxGeometry relative="1" as="geometry" />
        </mxCell>
        <mxCell id="GL-utDqGiQ9SbgEWFXb8-13" value="RemoteWithLocalFallbackFeedLoader" style="rounded=0;whiteSpace=wrap;html=1;fillColor=#f5f5f5;strokeColor=#A8A8A8;fontColor=#A8A8A8;fillOpacity=0;" parent="1" vertex="1">
          <mxGeometry x="1139" y="155" width="219" height="30" as="geometry" />
        </mxCell>
        <mxCell id="GL-utDqGiQ9SbgEWFXb8-14" style="edgeStyle=orthogonalEdgeStyle;shape=connector;rounded=0;orthogonalLoop=1;jettySize=auto;html=1;exitX=0;exitY=0.5;exitDx=0;exitDy=0;entryX=1;entryY=0.5;entryDx=0;entryDy=0;labelBackgroundColor=default;fontFamily=Helvetica;fontSize=11;fontColor=#A8A8A8;endArrow=classic;endFill=1;dashed=1;fillColor=#f5f5f5;strokeColor=#A8A8A8;fillOpacity=100;endSize=4;" parent="1" source="GL-utDqGiQ9SbgEWFXb8-18" target="GL-utDqGiQ9SbgEWFXb8-13" edge="1">
          <mxGeometry relative="1" as="geometry" />
        </mxCell>
        <mxCell id="GL-utDqGiQ9SbgEWFXb8-15" style="edgeStyle=orthogonalEdgeStyle;shape=connector;rounded=0;orthogonalLoop=1;jettySize=auto;html=1;exitX=0.25;exitY=1;exitDx=0;exitDy=0;entryX=1;entryY=0.5;entryDx=0;entryDy=0;dashed=1;labelBackgroundColor=default;fontFamily=Helvetica;fontSize=11;fontColor=#A8A8A8;endArrow=classic;endFill=1;fillColor=#f5f5f5;strokeColor=#A8A8A8;fillOpacity=100;endSize=4;" parent="1" source="GL-utDqGiQ9SbgEWFXb8-18" target="GL-utDqGiQ9SbgEWFXb8-9" edge="1">
          <mxGeometry relative="1" as="geometry" />
        </mxCell>
        <mxCell id="GL-utDqGiQ9SbgEWFXb8-16" style="edgeStyle=orthogonalEdgeStyle;shape=connector;rounded=0;orthogonalLoop=1;jettySize=auto;html=1;exitX=0.5;exitY=1;exitDx=0;exitDy=0;dashed=1;labelBackgroundColor=default;fontFamily=Helvetica;fontSize=11;fontColor=#A8A8A8;endArrow=classic;endFill=1;entryX=1;entryY=0.5;entryDx=0;entryDy=0;fillColor=#f5f5f5;strokeColor=#A8A8A8;fillOpacity=100;endSize=4;" parent="1" source="GL-utDqGiQ9SbgEWFXb8-18" target="GL-utDqGiQ9SbgEWFXb8-3" edge="1">
          <mxGeometry relative="1" as="geometry">
            <mxPoint x="1484.0769230769229" y="403.6923076923076" as="targetPoint" />
            <Array as="points">
              <mxPoint x="1529" y="291" />
              <mxPoint x="1471" y="291" />
              <mxPoint x="1471" y="388" />
            </Array>
          </mxGeometry>
        </mxCell>
        <mxCell id="GL-utDqGiQ9SbgEWFXb8-17" style="edgeStyle=orthogonalEdgeStyle;shape=connector;rounded=0;orthogonalLoop=1;jettySize=auto;html=1;exitX=0.5;exitY=0;exitDx=0;exitDy=0;dashed=1;labelBackgroundColor=default;fontFamily=Helvetica;fontSize=11;fontColor=#A8A8A8;endArrow=classic;endFill=1;fillColor=#f5f5f5;strokeColor=#A8A8A8;fillOpacity=100;endSize=4;" parent="1" source="GL-utDqGiQ9SbgEWFXb8-18" target="GL-utDqGiQ9SbgEWFXb8-7" edge="1">
          <mxGeometry relative="1" as="geometry">
            <Array as="points">
              <mxPoint x="1529" y="120" />
              <mxPoint x="1060" y="120" />
              <mxPoint x="1060" y="180" />
              <mxPoint x="1100" y="180" />
            </Array>
          </mxGeometry>
        </mxCell>
        <mxCell id="GL-utDqGiQ9SbgEWFXb8-18" value="Feed&lt;br&gt;Assembler/Builder/Factory" style="rounded=0;whiteSpace=wrap;html=1;fillColor=#f5f5f5;strokeColor=#A8A8A8;fontColor=#A8A8A8;fillOpacity=0;" parent="1" vertex="1">
          <mxGeometry x="1443" y="140" width="171" height="60" as="geometry" />
        </mxCell>
        <mxCell id="8W7GUWQGtb0MU_4nZzis-3" value="FeedItemsMapper" style="rounded=0;whiteSpace=wrap;html=1;fillColor=#f5f5f5;strokeColor=#3399FF;fontColor=#3399FF;fillOpacity=0;" vertex="1" parent="1">
          <mxGeometry x="910" y="240" width="115" height="30" as="geometry" />
        </mxCell>
        <mxCell id="8W7GUWQGtb0MU_4nZzis-4" value="HTTPClient" style="rounded=0;whiteSpace=wrap;html=1;fillColor=#f5f5f5;strokeColor=#3399FF;fontColor=#3399FF;fillOpacity=0;" vertex="1" parent="1">
          <mxGeometry x="910" y="285" width="115" height="30" as="geometry" />
        </mxCell>
        <mxCell id="8W7GUWQGtb0MU_4nZzis-12" style="edgeStyle=orthogonalEdgeStyle;shape=connector;rounded=0;orthogonalLoop=1;jettySize=auto;html=1;exitX=0.5;exitY=0;exitDx=0;exitDy=0;entryX=0.5;entryY=1;entryDx=0;entryDy=0;labelBackgroundColor=default;strokeColor=#A8A8A8;align=center;verticalAlign=middle;fontFamily=Helvetica;fontSize=11;fontColor=#A8A8A8;endArrow=block;endSize=4;dashed=1;endFill=0;fillColor=#f5f5f5;" edge="1" parent="1" source="8W7GUWQGtb0MU_4nZzis-9" target="8W7GUWQGtb0MU_4nZzis-4">
          <mxGeometry relative="1" as="geometry" />
        </mxCell>
        <mxCell id="8W7GUWQGtb0MU_4nZzis-14" style="edgeStyle=orthogonalEdgeStyle;shape=connector;rounded=0;orthogonalLoop=1;jettySize=auto;html=1;labelBackgroundColor=default;strokeColor=#A8A8A8;align=center;verticalAlign=middle;fontFamily=Helvetica;fontSize=11;fontColor=#A8A8A8;endArrow=classic;endSize=4;endFill=1;fillColor=#f5f5f5;" edge="1" parent="1" source="8W7GUWQGtb0MU_4nZzis-9">
          <mxGeometry relative="1" as="geometry">
            <mxPoint x="967.5" y="400" as="targetPoint" />
          </mxGeometry>
        </mxCell>
        <mxCell id="8W7GUWQGtb0MU_4nZzis-9" value="?" style="rounded=0;whiteSpace=wrap;html=1;fillColor=#f5f5f5;strokeColor=#A8A8A8;fontColor=#A8A8A8;fillOpacity=0;" vertex="1" parent="1">
          <mxGeometry x="910" y="330" width="115" height="30" as="geometry" />
        </mxCell>
        <mxCell id="8W7GUWQGtb0MU_4nZzis-13" value="" style="html=1;verticalLabelPosition=bottom;align=center;labelBackgroundColor=#ffffff;verticalAlign=top;strokeWidth=2;strokeColor=#3399FF;shadow=0;dashed=0;shape=mxgraph.ios7.icons.cloud;fontFamily=Helvetica;fontSize=11;fontColor=default;fillColor=#3399FF;" vertex="1" parent="1">
          <mxGeometry x="942.5" y="403" width="50" height="30" as="geometry" />
        </mxCell>
      </root>
    </mxGraphModel>
  </diagram>
</mxfile>
